/* XPM */
static char *d321863961c845c59b40f450da380b85YUtIGJ38tXolTMTP[] = {
/* columns rows colors chars-per-pixel */
"16 16 7 1 ",
"  c #2A2640",
". c #42195D",
"X c #5B276D",
"o c #49436D",
"O c #595483",
"+ c #797DC6",
"@ c #8096D4",
/* pixels */
"o+OOOOOOOOOOOOOo",
"oOooo   o   oooo",
" oOOOOoOOOoOOOOo",
" ooooo ooo Ooooo",
"                ",
"Oo  o  o  o  o O",
"Oo  O  O  O  O O",
"Oo  O  +  +  + O",
"oo  +  +  +  @.o",
"    @  @  @..@. ",
"Oo  @  @  @..@.O",
"Oo  @  @..@X.@XO",
"oo  +X +X.+X.+.o",
"  ..O. O..O..O. ",
"oo..o  o  o  o  ",
" .....XXXXXXXX. "
};
