/* XPM */
static char *_7aff8c6be754229da4a08f3d08aa250aQ1jRaFxk4MDDTA8[] = {
/* columns rows colors chars-per-pixel */
"16 16 5 1 ",
"  c #2A2640",
". c #49436D",
"X c #595483",
"o c #797DC6",
"O c #8096D4",
/* pixels */
"  .....   ......",
" .XXXXXXXXXXXXXX",
" XXoXXoOOoooOoXX",
" XooXooOooooOooX",
" XoooooOoooooooX",
" XoooooooooooooX",
".XoooooooooooooX",
" XoooooooooooooX",
" XoooooooooooooX",
".XoooooooooooooX",
" XoooooooooooooX",
".XoooooooooooOoX",
".XoooOOooooooOoX",
" XOOOOXOOOOOOOOX",
".XXXXX XXXXXXXXX",
".X              "
};
